<svg width="64" height="64" viewBox="0 0 64 64" fill="none" xmlns="http://www.w3.org/2000/svg">
<path d="M43.4698 15.33C44.7839 15.348 46.081 15.6305 47.2836 16.1605C48.4862 16.6905 49.5698 17.4573 50.4698 18.415C50.4698 18.415 54.2898 17.665 56.3998 16.18C56.3998 16.18 55.8698 19.12 52.3548 21.37H52.3848C52.6548 21.37 54.6248 21.32 57.7248 19.87C57.7248 19.87 57.1298 21.565 53.0748 24.79C53.3198 32.42 49.5448 46.525 35.5748 51.545C32.5067 52.6674 29.2668 53.2477 25.9998 53.26C20.7657 53.2839 15.6387 51.7771 11.2498 48.925C11.9998 49 12.6748 49 13.3498 49C21.6098 49 25.6098 44.76 25.3898 44.76H25.0848C18.0848 44.76 16.3798 38.06 16.3798 38.06C16.9404 38.3989 17.5909 38.5593 18.2448 38.52C19.09 38.5024 19.9298 38.3798 20.7448 38.155C12.8448 36.285 13.1398 28.705 13.1398 28.705C14.2074 29.4175 15.4566 29.8096 16.7398 29.835C16.9509 29.8374 17.1617 29.8206 17.3698 29.785C10.1548 24.075 14.4998 17.26 14.4998 17.26C22.6298 26.695 32.6248 27.03 33.9998 27.03H34.1648C33.4248 22.6 35.2498 18.345 40.1648 16.03C41.1901 15.5592 42.3066 15.3201 43.4348 15.33H43.4698ZM60.9998 9L54.5348 13.54C53.5474 14.1319 52.4797 14.5781 51.3648 14.865C49.102 13.098 46.3206 12.1247 43.4498 12.095C41.8449 12.0801 40.2567 12.4217 38.7998 13.095C34.2098 15.25 31.4198 18.97 30.8648 23.435C25.4309 22.3143 20.5347 19.3914 16.9698 15.14L14.1198 11.835L11.7698 15.5C10.2548 17.9957 9.65389 20.9402 10.0698 23.83L9.8848 28.595C9.84328 31.6199 10.8483 34.5661 12.7298 36.935L13.2298 38.885C13.9469 41.4032 15.403 43.6483 17.4098 45.33C16.0747 45.6221 14.7115 45.7663 13.3448 45.76C12.7498 45.76 12.1348 45.735 11.5148 45.685L0.0498047 44.73L9.3248 51.545C14.2744 54.8016 20.075 56.5252 25.9998 56.5C29.6463 56.4902 33.2633 55.8473 36.6898 54.6C43.5636 52.1469 49.2359 47.1528 52.5398 40.645C54.8252 36.2009 56.1167 31.313 56.3248 26.32C59.6398 23.465 60.5498 21.645 60.7948 20.95L63.3548 13.665L59.8548 15.295L60.9998 9Z" fill="white"/>
</svg>
