<svg width="64" height="64" viewBox="0 0 64 64" fill="none" xmlns="http://www.w3.org/2000/svg">
<path d="M6.41575 23.2312H17.6671V57.0902H6.41575V23.2312ZM12.1167 6.90967C8.26587 6.90967 5.75 9.43779 5.75 12.756C5.75 16.006 8.19225 18.6077 11.9695 18.6077H12.0413C15.9658 18.6077 18.4097 16.0059 18.4097 12.756C18.3361 9.43779 15.9659 6.90967 12.1167 6.90967V6.90967ZM45.2924 22.4358C39.32 22.4358 36.6444 25.7208 35.1517 28.0245V23.2312H23.897C24.046 26.4075 23.897 57.0902 23.897 57.0902H35.1517V38.1809C35.1517 37.1682 35.2254 36.1592 35.5215 35.4337C36.3364 33.4119 38.1881 31.3183 41.2943 31.3183C45.3695 31.3183 46.997 34.4247 46.997 38.9743V57.09H58.25V37.6747C58.25 27.2748 52.6997 22.4358 45.2924 22.4358V22.4358Z" fill="white"/>
</svg>
