<svg width="32" height="32" viewBox="0 0 32 32" fill="none" xmlns="http://www.w3.org/2000/svg">
<path d="M25.3332 5.33337H6.6665C5.60564 5.33337 4.58822 5.7548 3.83808 6.50495C3.08793 7.25509 2.6665 8.27251 2.6665 9.33337V22.6667C2.6665 23.7276 3.08793 24.745 3.83808 25.4951C4.58822 26.2453 5.60564 26.6667 6.6665 26.6667H25.3332C26.394 26.6667 27.4115 26.2453 28.1616 25.4951C28.9117 24.745 29.3332 23.7276 29.3332 22.6667V9.33337C29.3332 8.27251 28.9117 7.25509 28.1616 6.50495C27.4115 5.7548 26.394 5.33337 25.3332 5.33337ZM24.7865 8.00004L16.9465 15.84C16.8226 15.965 16.6751 16.0642 16.5126 16.1319C16.3501 16.1996 16.1759 16.2344 15.9998 16.2344C15.8238 16.2344 15.6495 16.1996 15.4871 16.1319C15.3246 16.0642 15.1771 15.965 15.0532 15.84L7.21317 8.00004H24.7865ZM26.6665 22.6667C26.6665 23.0203 26.526 23.3595 26.276 23.6095C26.0259 23.8596 25.6868 24 25.3332 24H6.6665C6.31288 24 5.97374 23.8596 5.7237 23.6095C5.47365 23.3595 5.33317 23.0203 5.33317 22.6667V9.88004L13.1732 17.72C13.9232 18.4691 14.9398 18.8899 15.9998 18.8899C17.0598 18.8899 18.0765 18.4691 18.8265 17.72L26.6665 9.88004V22.6667Z" fill="#0E55F4"/>
</svg>
