<svg width="32" height="32" viewBox="0 0 32 32" fill="none" xmlns="http://www.w3.org/2000/svg">
<path d="M3.91434 5.60297L3.95716 5.57622L9.36922 2.90991L15.2107 10.6985L12.5232 14.282C12.6036 15.6335 13.1767 16.9086 14.134 17.8659C15.0913 18.8232 16.3664 19.3963 17.7178 19.4767L21.3013 16.7892L29.0898 22.6305L26.4457 27.9973L26.4235 28.0426L26.3967 28.0853C26.2556 28.3127 26.0586 28.5002 25.8246 28.6299C25.5905 28.7596 25.3272 28.8273 25.0596 28.8264H23.6631C20.9723 28.8264 18.3079 28.2964 15.822 27.2667C13.3361 26.237 11.0773 24.7277 9.17463 22.8251C7.27198 20.9224 5.76272 18.6636 4.73302 16.1777C3.70331 13.6918 3.17334 11.0274 3.17334 8.3366V6.94004C3.17249 6.67246 3.24013 6.40911 3.36984 6.17507C3.49954 5.94103 3.68699 5.74408 3.91434 5.60297ZM5.17334 8.3366C5.17334 18.5319 13.4678 26.8264 23.6631 26.8264H24.7931L26.5622 23.235L21.301 19.289L18.3718 21.4858H18.0385C16.0434 21.4836 14.1307 20.6901 12.72 19.2794C11.3092 17.8686 10.5157 15.9559 10.5135 13.9608V13.6275L12.7103 10.6984L8.76478 5.43747L5.17334 7.20691V8.3366Z" fill="#0E55F4"/>
</svg>
