<svg width="61" height="61" viewBox="0 0 61 61" fill="none" xmlns="http://www.w3.org/2000/svg">
<g clip-path="url(#clip0_102_2)">
<path fill-rule="evenodd" clip-rule="evenodd" d="M56.3314 30.9477C56.3314 23.9857 53.5658 17.3089 48.6429 12.3861C43.7201 7.46328 37.0433 4.69766 30.0814 4.69766C23.1195 4.69766 16.4427 7.46328 11.5198 12.3861C6.597 17.3089 3.83139 23.9857 3.83139 30.9477C3.83139 37.9096 6.597 44.5864 11.5198 49.5092C16.4427 54.432 23.1195 57.1977 30.0814 57.1977C37.0433 57.1977 43.7201 54.432 48.6429 49.5092C53.5658 44.5864 56.3314 37.9096 56.3314 30.9477V30.9477ZM0.0813863 30.9477C0.0813863 22.9912 3.24209 15.3605 8.86818 9.73445C14.4943 4.10836 22.1249 0.947658 30.0814 0.947658C38.0379 0.947658 45.6685 4.10836 51.2946 9.73445C56.9207 15.3605 60.0814 22.9912 60.0814 30.9477C60.0814 38.9042 56.9207 46.5348 51.2946 52.1609C45.6685 57.7869 38.0379 60.9477 30.0814 60.9477C22.1249 60.9477 14.4943 57.7869 8.86818 52.1609C3.24209 46.5348 0.0813863 38.9042 0.0813863 30.9477V30.9477ZM43.2064 32.8227C43.7037 32.8227 44.1806 32.6251 44.5322 32.2735C44.8838 31.9219 45.0814 31.4449 45.0814 30.9477C45.0814 30.4504 44.8838 29.9735 44.5322 29.6218C44.1806 29.2702 43.7037 29.0727 43.2064 29.0727H21.4826L29.5339 21.0252C29.7082 20.8508 29.8465 20.6439 29.9408 20.4161C30.0352 20.1883 30.0838 19.9442 30.0838 19.6977C30.0838 19.4511 30.0352 19.207 29.9408 18.9792C29.8465 18.7514 29.7082 18.5445 29.5339 18.3702C29.3596 18.1958 29.1526 18.0575 28.9248 17.9632C28.6971 17.8688 28.4529 17.8203 28.2064 17.8203C27.9598 17.8203 27.7157 17.8688 27.4879 17.9632C27.2602 18.0575 27.0532 18.1958 26.8789 18.3702L15.6289 29.6202C15.4543 29.7943 15.3157 30.0012 15.2212 30.229C15.1267 30.4568 15.078 30.701 15.078 30.9477C15.078 31.1943 15.1267 31.4385 15.2212 31.6663C15.3157 31.8941 15.4543 32.101 15.6289 32.2752L26.8789 43.5252C27.0532 43.6995 27.2602 43.8378 27.4879 43.9321C27.7157 44.0265 27.9598 44.075 28.2064 44.075C28.4529 44.075 28.6971 44.0265 28.9248 43.9321C29.1526 43.8378 29.3596 43.6995 29.5339 43.5252C29.7082 43.3508 29.8465 43.1439 29.9408 42.9161C30.0352 42.6883 30.0838 42.4442 30.0838 42.1977C30.0838 41.9511 30.0352 41.707 29.9408 41.4792C29.8465 41.2514 29.7082 41.0445 29.5339 40.8702L21.4826 32.8227H43.2064Z" fill="#E39F48"/>
</g>
<defs>
<clipPath id="clip0_102_2">
<rect width="60" height="60" fill="white" transform="translate(60.0814 60.9477) rotate(-180)"/>
</clipPath>
</defs>
</svg>
